<svg xmlns="http://www.w3.org/2000/svg" width="29" height="29" viewBox="0 0 29 29"><g transform="translate(-1075 -1786)"><g transform="translate(1075 1786)" fill="none"><path d="M14.5,0A14.5,14.5,0,1,1,0,14.5,14.5,14.5,0,0,1,14.5,0Z" stroke="none"/><path d="M 14.5 1.200000762939453 C 10.94743919372559 1.200000762939453 7.607519149780273 2.583440780639648 5.095479965209961 5.095479965209961 C 2.583440780639648 7.607519149780273 1.200000762939453 10.94743919372559 1.200000762939453 14.5 C 1.200000762939453 18.05255889892578 2.583440780639648 21.39247894287109 5.095479965209961 23.90452003479004 C 7.607519149780273 26.41655921936035 10.94743919372559 27.79999923706055 14.5 27.79999923706055 C 18.05255889892578 27.79999923706055 21.39247894287109 26.41655921936035 23.90452003479004 23.90452003479004 C 26.41655921936035 21.39247894287109 27.79999923706055 18.05255889892578 27.79999923706055 14.5 C 27.79999923706055 10.94743919372559 26.41655921936035 7.607519149780273 23.90452003479004 5.095479965209961 C 21.39247894287109 2.583440780639648 18.05255889892578 1.200000762939453 14.5 1.200000762939453 M 14.5 0 C 22.50812911987305 0 29 6.491870880126953 29 14.5 C 29 22.50812911987305 22.50812911987305 29 14.5 29 C 6.491870880126953 29 0 22.50812911987305 0 14.5 C 0 6.491870880126953 6.491870880126953 0 14.5 0 Z" stroke="none" fill="#fff"/></g><path d="M16.358,9.333,17.822,2.89a.743.743,0,0,0-.725-.908H4.931L4.647.594A.743.743,0,0,0,3.919,0H.743A.743.743,0,0,0,0,.743v.5a.743.743,0,0,0,.743.743H2.908L5.084,12.62a1.735,1.735,0,1,0,2.077.265h6.493a1.734,1.734,0,1,0,1.97-.322l.171-.752a.743.743,0,0,0-.725-.908H6.756l-.2-.991h9.08A.743.743,0,0,0,16.358,9.333Z" transform="translate(1080.5 1792.5)" fill="#fff" stroke="#000" stroke-width="1"/></g></svg>